<?xml version="1.0" encoding="utf-8"?>
<!-- Generator: Adobe Illustrator 22.1.0, SVG Export Plug-In . SVG Version: 6.00 Build 0)  -->
<svg version="1.1" id="Layer_1" xmlns="http://www.w3.org/2000/svg" xmlns:xlink="http://www.w3.org/1999/xlink" x="0px" y="0px"
	 viewBox="0 0 94.6 94.9" style="enable-background:new 0 0 94.6 94.9;" xml:space="preserve">
<style type="text/css">
	.st0{fill:#002F4F;}
	.st1{clip-path:url(#SVGID_2_);fill:url(#SVGID_3_);}
	.st2{clip-path:url(#SVGID_5_);fill:url(#SVGID_6_);}
	.st3{clip-path:url(#SVGID_8_);fill:url(#SVGID_9_);}
	.st4{clip-path:url(#SVGID_11_);fill:url(#SVGID_12_);}
</style>
<path class="st0" d="M47.3,79c-0.4,0-0.7,0-1.1,0l-0.7,0v14.1H48V79L47.3,79z"/>
<path class="st0" d="M14.6,45.2H0V48h14.5l0-0.9c0-0.4,0-0.9,0-1.3L14.6,45.2z"/>
<path class="st0" d="M45.5,0v15l0.8,0c0.3,0,0.7,0,1,0l0.8,0V0H45.5z"/>
<path class="st0" d="M78.5,45.2l0,0.5c0,0.4,0,0.9,0,1.3l0,0.9h14.6l0-2.7H78.5z"/>
<g>
	<defs>
		<path id="SVGID_1_" d="M48.9,9.5C67.7,10.6,82.8,25.6,84,44.4h3.8c-1.3-20.9-18-37.5-38.9-38.7V9.5z"/>
	</defs>
	<clipPath id="SVGID_2_">
		<use xlink:href="#SVGID_1_"  style="overflow:visible;"/>
	</clipPath>
	
		<linearGradient id="SVGID_3_" gradientUnits="userSpaceOnUse" x1="-148.0031" y1="1000.8226" x2="-147.003" y2="1000.8226" gradientTransform="matrix(-38.8697 0 0 38.8697 -5665.0581 -38876.6211)">
		<stop  offset="0" style="stop-color:#FFFFFF;stop-opacity:0"/>
		<stop  offset="1" style="stop-color:#00AEEF"/>
	</linearGradient>
	<rect x="48.9" y="5.7" class="st1" width="38.9" height="38.7"/>
</g>
<g>
	<defs>
		<path id="SVGID_4_" d="M5.3,44.4H9c1.3-18.9,16.5-34,35.5-35V5.7C23.5,6.7,6.6,23.4,5.3,44.4"/>
	</defs>
	<clipPath id="SVGID_5_">
		<use xlink:href="#SVGID_4_"  style="overflow:visible;"/>
	</clipPath>
	<linearGradient id="SVGID_6_" gradientUnits="userSpaceOnUse" x1="5.2827" y1="25.042" x2="44.5396" y2="25.042">
		<stop  offset="0" style="stop-color:#FFFFFF;stop-opacity:0"/>
		<stop  offset="1" style="stop-color:#EC008C"/>
	</linearGradient>
	<rect x="5.3" y="5.7" class="st2" width="39.3" height="38.7"/>
</g>
<g>
	<defs>
		<path id="SVGID_7_" d="M84.1,48.8c-0.9,19.1-16.1,34.5-35.2,35.7v3.8C70,87,86.9,70,87.8,48.8H84.1z"/>
	</defs>
	<clipPath id="SVGID_8_">
		<use xlink:href="#SVGID_7_"  style="overflow:visible;"/>
	</clipPath>
	
		<linearGradient id="SVGID_9_" gradientUnits="userSpaceOnUse" x1="-150.1755" y1="1003.1876" x2="-149.1755" y2="1003.1876" gradientTransform="matrix(-44.483 7.8436 7.8436 44.483 -14458.2568 -43382.3008)">
		<stop  offset="0" style="stop-color:#FFFFFF;stop-opacity:0"/>
		<stop  offset="1" style="stop-color:#000000"/>
	</linearGradient>
	<polygon class="st3" points="94.6,87 50.1,94.9 42.2,50 86.6,42.1 	"/>
</g>
<g>
	<defs>
		<path id="SVGID_10_" d="M5.2,48.8c0.9,21.3,18,38.5,39.3,39.5v-3.8C25.3,83.5,9.9,68,9,48.8H5.2z"/>
	</defs>
	<clipPath id="SVGID_11_">
		<use xlink:href="#SVGID_10_"  style="overflow:visible;"/>
	</clipPath>
	
		<linearGradient id="SVGID_12_" gradientUnits="userSpaceOnUse" x1="-147.8024" y1="1030.1971" x2="-146.8024" y2="1030.1971" gradientTransform="matrix(39.2962 0 0 -39.2962 5813.3154 40551.3398)">
		<stop  offset="0" style="stop-color:#FFFFFF;stop-opacity:0"/>
		<stop  offset="1" style="stop-color:#FFF200"/>
	</linearGradient>
	<rect x="5.2" y="48.8" class="st4" width="39.3" height="39.5"/>
</g>
<path class="st0" d="M77,43.2l0-0.4H45.4v6.8H70c-1.5,11.8-11.4,20.7-23.4,20.7c-13,0-23.6-10.6-23.6-23.6C23,33.6,33.6,23,46.6,23
	c9.7,0,18.5,6.1,22,15.1l0.1,0.3h7.4l-0.2-0.6C72,25,60,16,46.6,16C29.7,16,16,29.7,16,46.6c0,16.9,13.7,30.6,30.6,30.6
	c16.3,0,29.7-12.7,30.5-28.9c0-0.5,0-1.1,0-1.6C77.2,45.5,77.1,44.3,77,43.2z"/>
</svg>
