<?xml version="1.0" encoding="utf-8"?>
<!-- Generator: Adobe Illustrator 22.1.0, SVG Export Plug-In . SVG Version: 6.00 Build 0)  -->
<svg version="1.1" id="Layer_1" xmlns="http://www.w3.org/2000/svg" xmlns:xlink="http://www.w3.org/1999/xlink" x="0px" y="0px"
	 viewBox="0 0 323.8 94.9" style="enable-background:new 0 0 323.8 94.9;" xml:space="preserve">
<style type="text/css">
	.st0{fill:#FFFFFF;}
	.st1{clip-path:url(#SVGID_2_);fill:url(#SVGID_3_);}
	.st2{clip-path:url(#SVGID_5_);fill:url(#SVGID_6_);}
	.st3{clip-path:url(#SVGID_8_);fill:url(#SVGID_9_);}
	.st4{clip-path:url(#SVGID_11_);fill:url(#SVGID_12_);}
</style>
<path class="st0" d="M47.3,79c-0.4,0-0.7,0-1.1,0l-0.7,0v14.1H48V79L47.3,79z"/>
<path class="st0" d="M14.6,45.2H0V48h14.5l0-0.9c0-0.4,0-0.9,0-1.3L14.6,45.2z"/>
<path class="st0" d="M45.5,0v15l0.8,0c0.3,0,0.7,0,1,0l0.8,0V0H45.5z"/>
<path class="st0" d="M78.5,45.2l0,0.5c0,0.4,0,0.9,0,1.3l0,0.9h14.6l0-2.7H78.5z"/>
<g>
	<defs>
		<path id="SVGID_1_" d="M48.9,9.5C67.7,10.6,82.8,25.6,84,44.4h3.8c-1.3-20.9-18-37.5-38.9-38.7V9.5z"/>
	</defs>
	<clipPath id="SVGID_2_">
		<use xlink:href="#SVGID_1_"  style="overflow:visible;"/>
	</clipPath>
	
		<linearGradient id="SVGID_3_" gradientUnits="userSpaceOnUse" x1="-148.0031" y1="1000.8225" x2="-147.0031" y2="1000.8225" gradientTransform="matrix(-38.8697 0 0 38.8697 -5665.061 -38876.6172)">
		<stop  offset="0" style="stop-color:#FFFFFF;stop-opacity:0"/>
		<stop  offset="1" style="stop-color:#00AEEF"/>
	</linearGradient>
	<rect x="48.9" y="5.7" class="st1" width="38.9" height="38.7"/>
</g>
<g>
	<defs>
		<path id="SVGID_4_" d="M5.3,44.4H9c1.3-18.9,16.5-34,35.5-35V5.7C23.5,6.7,6.6,23.4,5.3,44.4"/>
	</defs>
	<clipPath id="SVGID_5_">
		<use xlink:href="#SVGID_4_"  style="overflow:visible;"/>
	</clipPath>
	<linearGradient id="SVGID_6_" gradientUnits="userSpaceOnUse" x1="5.2826" y1="25.042" x2="44.5395" y2="25.042">
		<stop  offset="0" style="stop-color:#FFFFFF;stop-opacity:0"/>
		<stop  offset="1" style="stop-color:#EC008C"/>
	</linearGradient>
	<rect x="5.3" y="5.7" class="st2" width="39.3" height="38.7"/>
</g>
<g>
	<defs>
		<path id="SVGID_7_" d="M84.1,48.8c-0.9,19.1-16.1,34.5-35.2,35.7v3.8C70,87,86.9,70,87.8,48.8H84.1z"/>
	</defs>
	<clipPath id="SVGID_8_">
		<use xlink:href="#SVGID_7_"  style="overflow:visible;"/>
	</clipPath>
	
		<linearGradient id="SVGID_9_" gradientUnits="userSpaceOnUse" x1="-150.1756" y1="1003.1874" x2="-149.1756" y2="1003.1874" gradientTransform="matrix(-44.483 7.8436 7.8436 44.483 -14458.2598 -43382.2969)">
		<stop  offset="0" style="stop-color:#FFFFFF;stop-opacity:0"/>
		<stop  offset="1" style="stop-color:#000000"/>
	</linearGradient>
	<polygon class="st3" points="94.6,87 50.1,94.9 42.2,50 86.6,42.1 	"/>
</g>
<g>
	<defs>
		<path id="SVGID_10_" d="M5.2,48.8c0.9,21.3,18,38.5,39.3,39.5v-3.8C25.3,83.5,9.9,68,9,48.8H5.2z"/>
	</defs>
	<clipPath id="SVGID_11_">
		<use xlink:href="#SVGID_10_"  style="overflow:visible;"/>
	</clipPath>
	
		<linearGradient id="SVGID_12_" gradientUnits="userSpaceOnUse" x1="-147.8025" y1="1030.197" x2="-146.8025" y2="1030.197" gradientTransform="matrix(39.2962 0 0 -39.2962 5813.3184 40551.3359)">
		<stop  offset="0" style="stop-color:#FFFFFF;stop-opacity:0"/>
		<stop  offset="1" style="stop-color:#FFF200"/>
	</linearGradient>
	<rect x="5.2" y="48.8" class="st4" width="39.3" height="39.5"/>
</g>
<path class="st0" d="M77,43.2l0-0.4H45.4v6.8H70c-1.5,11.8-11.4,20.7-23.4,20.7c-13,0-23.6-10.6-23.6-23.6C23,33.6,33.6,23,46.6,23
	c9.7,0,18.5,6.1,22,15.1l0.1,0.3h7.4l-0.2-0.6C72,25,60,16,46.6,16C29.7,16,16,29.7,16,46.6c0,16.9,13.7,30.6,30.6,30.6
	c16.3,0,29.7-12.7,30.5-28.9c0-0.5,0-1.1,0-1.6C77.2,45.5,77.1,44.3,77,43.2z"/>
<g>
	<path class="st0" d="M141.1,25.5c-1.2-1-2.7-1.5-4.5-1.5h-23.9c-1,0-2,0.2-2.8,0.6c-0.9,0.4-1.7,0.9-2.3,1.5
		c-0.7,0.6-1.2,1.4-1.6,2.2c-0.4,0.8-0.6,1.7-0.6,2.6v11.3h31.3c1.8,0,3.4-0.5,4.5-1.5v2.4c0,1.2-0.4,2.1-1.3,3
		c-0.9,0.8-2,1.2-3.2,1.2h-9v2.7h9c1,0,2-0.2,2.9-0.5c0.9-0.4,1.7-0.9,2.4-1.5c0.7-0.6,1.2-1.4,1.6-2.2c0.4-0.8,0.6-1.7,0.6-2.6V24
		h-2.9V25.5z M139.8,28c0.9,0.8,1.3,1.8,1.3,3v4.4c0,1.2-0.4,2.2-1.3,3.1c-0.9,0.9-2,1.3-3.2,1.3h-28.5V31c0-1.2,0.4-2.2,1.3-3
		c0.9-0.8,2-1.2,3.2-1.2h23.9C137.9,26.8,139,27.2,139.8,28z"/>
	<path class="st0" d="M192.5,40.2c0.7,0.6,1.5,1.1,2.4,1.5c0.9,0.4,2,0.5,3,0.5h0.2v-2.5H198c-0.7,0-1.3-0.1-1.9-0.4
		c-0.6-0.2-1.1-0.6-1.6-1c-0.4-0.4-0.8-0.9-1.1-1.4c-0.3-0.5-0.4-1.1-0.4-1.7V15.2h-2.8v20.2c0,0.9,0.2,1.8,0.6,2.7
		C191.3,38.9,191.8,39.6,192.5,40.2z"/>
	<path class="st0" d="M245.6,38.6c0-1.2,0.4-2.1,1.3-3c0.9-0.8,1.9-1.2,3.2-1.2h23.7c1.3,0,2.3,0.4,3.2,1.2c0.9,0.8,1.3,1.8,1.3,2.9
		h-0.1v3.7h0.1h2.9v-3.7v0h0c0-1.2-0.3-2.3-1-3.2c-0.6-0.8-1.3-1.6-2.1-2.1c0.8-0.6,1.5-1.4,2.1-2.3c0.7-1,1-2.1,1-3.3V24h-2.9v3.8
		c0,1.2-0.4,2.2-1.3,3c-0.9,0.8-1.9,1.2-3.2,1.2h-23.7c-1.2,0-2.3-0.4-3.2-1.2c-0.9-0.8-1.3-1.8-1.3-3V24h-2.8v3.8
		c0,1.2,0.3,2.3,1,3.3c0.6,0.9,1.3,1.6,2.2,2.3c-0.9,0.5-1.6,1.3-2.2,2.1c-0.6,1-1,2-1,3.2v3.7h2.8V38.6z"/>
	<path class="st0" d="M321,24v11.6c0,1.1-0.4,2.1-1.3,3c-0.9,0.8-2,1.2-3.3,1.2h-24c-1.2,0-2.3-0.4-3.2-1.3
		c-0.9-0.9-1.3-1.9-1.3-3.1V24h-2.9v11.4c0,1,0.2,1.9,0.6,2.7c0.4,0.8,0.9,1.6,1.7,2.2c0.7,0.6,1.5,1.1,2.4,1.5
		c0.9,0.3,1.8,0.5,2.8,0.5h24c1.8,0,3.4-0.5,4.6-1.5v2.4c0,1.1-0.4,2.1-1.3,3c-0.9,0.8-2,1.2-3.3,1.2h-0.2v2.7h0.2
		c1,0,1.9-0.2,2.8-0.5c0.9-0.4,1.7-0.9,2.4-1.5c0.7-0.6,1.2-1.4,1.6-2.2c0.4-0.8,0.6-1.7,0.6-2.6V24H321z"/>
	<path class="st0" d="M183.9,25.9c-0.7-0.6-1.5-1.1-2.4-1.5c-0.9-0.3-1.9-0.5-2.9-0.5h-31.2v2.7h31.2c1.3,0,2.4,0.4,3.3,1.2
		c0.9,0.8,1.3,1.8,1.3,3v3.1h-0.1v2.3c-0.2,0.8-0.6,1.4-1.2,2.1c-0.9,0.8-2,1.2-3.3,1.2h-24c-1.3,0-2.3-0.4-3.2-1.2
		c-0.9-0.8-1.3-1.8-1.3-3v-2.4h28.2v-2.5h-30.9v4.9c0,0.9,0.2,1.8,0.6,2.6c0.4,0.8,0.9,1.6,1.6,2.2c0.7,0.7,1.4,1.2,2.3,1.5
		c0.9,0.4,1.8,0.6,2.8,0.6h24c1.1,0,2-0.2,2.9-0.6c0.6-0.2,1-0.5,1.5-0.9v1.5h3v-6.5c0-0.2,0-0.4,0-0.6v-4.4c0-1-0.2-1.9-0.6-2.7
		C185.1,27.3,184.6,26.5,183.9,25.9z"/>
	<path class="st0" d="M202.2,40.1c0.7,0.7,1.4,1.2,2.3,1.5c0.9,0.4,1.8,0.6,2.8,0.6h24c1.1,0,2-0.2,2.9-0.6c0.6-0.2,1.1-0.5,1.5-0.9
		v1.5h3v-6.8c0-0.1,0-0.1,0-0.2v-4.4c0-1-0.2-1.9-0.6-2.7c-0.4-0.8-0.9-1.6-1.6-2.2c-0.7-0.6-1.5-1.1-2.4-1.5
		c-0.9-0.3-1.9-0.5-2.9-0.5h-31.2v2.7h31.2c1.3,0,2.4,0.4,3.3,1.2c0.9,0.8,1.3,1.8,1.3,3v3.1h-0.1v2.2c-0.2,0.8-0.6,1.5-1.2,2.1
		c-0.9,0.8-2,1.2-3.2,1.2h-24c-1.3,0-2.3-0.4-3.2-1.2c-0.9-0.8-1.3-1.8-1.3-3v-2.4H231v-2.5h-30.9v4.9c0,0.9,0.2,1.8,0.6,2.6
		C201,38.7,201.5,39.5,202.2,40.1z"/>
	<path class="st0" d="M141.9,59.7c-0.7-0.6-1.4-1.1-2.3-1.5c-0.9-0.3-1.8-0.5-2.8-0.5h-24c-1.8,0-3.3,0.5-4.5,1.5l0-1.5h-2.9v24.8
		h2.9V76h28.6c1,0,1.9-0.2,2.8-0.6c0.9-0.4,1.6-0.9,2.3-1.5c0.7-0.6,1.2-1.4,1.5-2.2c0.4-0.8,0.6-1.7,0.6-2.7v-4.4
		c0-1-0.2-1.9-0.6-2.7C143,61.1,142.5,60.3,141.9,59.7z M112.8,60.4h24c1.2,0,2.3,0.4,3.2,1.2c0.9,0.8,1.3,1.8,1.3,3v4.4
		c0,1.2-0.4,2.2-1.3,3c-0.9,0.8-2,1.2-3.2,1.2h-28.5v-8.7c0-1.1,0.4-2.1,1.3-3C110.4,60.8,111.5,60.4,112.8,60.4z"/>
	<path class="st0" d="M183.6,59.7c-0.7-0.6-1.4-1.1-2.3-1.5c-0.9-0.3-1.8-0.5-2.8-0.5h-24c-1.8,0-3.4,0.5-4.5,1.5v-1.5h-2.9V76h2.9
		V64.6c0-1.2,0.4-2.2,1.3-3c0.9-0.8,1.9-1.2,3.3-1.2h24c1.3,0,2.4,0.4,3.2,1.2c0.9,0.8,1.3,1.8,1.3,3v0.2h2.6v-0.2
		c0-1-0.2-1.9-0.6-2.7C184.8,61.1,184.2,60.3,183.6,59.7z"/>
	<path class="st0" d="M224.9,59.7c-0.7-0.7-1.4-1.2-2.3-1.5c-0.9-0.4-1.8-0.6-2.8-0.6h-24c-1,0-2,0.2-2.9,0.6
		c-0.9,0.4-1.7,0.9-2.4,1.5c-0.7,0.7-1.2,1.4-1.6,2.2c-0.4,0.8-0.6,1.7-0.6,2.6V69c0,1,0.2,1.9,0.6,2.7c0.4,0.8,0.9,1.6,1.6,2.2
		c0.7,0.6,1.5,1.1,2.4,1.5c0.9,0.3,1.9,0.5,2.9,0.5H227v-2.7h-31.2c-1.3,0-2.4-0.4-3.3-1.2c-0.9-0.8-1.3-1.8-1.3-3v-4.5
		c0-1.2,0.4-2.2,1.3-3c0.9-0.8,2-1.2,3.2-1.2h24c1.3,0,2.3,0.4,3.2,1.2c0.9,0.8,1.3,1.8,1.3,3V67h-27.5v2.5H227v-4.9
		c0-0.9-0.2-1.8-0.6-2.6C226.1,61.1,225.6,60.4,224.9,59.7z"/>
	<path class="st0" d="M270,57.7h-15c-1,0-2,0.2-2.8,0.6c-0.9,0.4-1.7,0.9-2.3,1.5c-0.7,0.7-1.2,1.4-1.6,2.2
		c-0.4,0.8-0.6,1.7-0.6,2.7v4.4c0,1.2-0.4,2.2-1.3,3c-0.9,0.8-2,1.2-3.2,1.2h-12.1V76h12.1c1,0,1.9-0.2,2.8-0.5
		c0.8-0.3,1.6-0.8,2.3-1.5c0.7-0.6,1.2-1.4,1.6-2.2c0.4-0.8,0.6-1.8,0.6-2.7v-4.4c0-1.2,0.4-2.2,1.3-3c0.9-0.8,2-1.2,3.3-1.2h15
		V57.7z"/>
	<path class="st0" d="M280.4,58.3c-0.9,0.4-1.7,0.9-2.3,1.5c-0.7,0.6-1.2,1.4-1.6,2.2c-0.4,0.8-0.6,1.7-0.6,2.7v4.4
		c0,1.2-0.4,2.2-1.3,3c-0.9,0.8-2,1.2-3.2,1.2h-12.1V76h12.1c1,0,1.9-0.2,2.8-0.5c0.9-0.3,1.6-0.8,2.3-1.5c0.7-0.6,1.2-1.4,1.6-2.2
		c0.4-0.8,0.6-1.8,0.6-2.7v-4.4c0-1.2,0.4-2.2,1.3-3c0.9-0.8,2-1.2,3.3-1.2h15v-2.7h-15C282.2,57.7,281.3,57.9,280.4,58.3z"/>
</g>
</svg>
